<?xml version="1.0" encoding="utf-8"?>
<!-- Generator: Adobe Illustrator 16.0.4, SVG Export Plug-In . SVG Version: 6.00 Build 0)  -->
<!DOCTYPE svg PUBLIC "-//W3C//DTD SVG 1.1//EN" "http://www.w3.org/Graphics/SVG/1.1/DTD/svg11.dtd">
<svg version="1.1" id="Layer_1" xmlns="http://www.w3.org/2000/svg" xmlns:xlink="http://www.w3.org/1999/xlink" x="0px" y="0px"
	 width="500px" height="500px" viewBox="0 0 500 500" enable-background="new 0 0 500 500" xml:space="preserve">
<g>
	<g>
		<path d="M17.98,35.02c16.911,17.023,33.821,34.047,50.732,51.07c39.768,40.034,79.537,80.068,119.305,120.103
			c46.182,46.491,92.364,92.981,138.545,139.471c36.15,36.393,72.302,72.784,108.452,109.177
			c10.655,10.727,21.311,21.452,31.966,32.179c11.605,11.684,29.642-6.359,18.039-18.039c-16.91-17.023-33.82-34.047-50.731-51.07
			c-39.769-40.034-79.537-80.068-119.306-120.103c-46.182-46.491-92.363-92.981-138.545-139.472
			c-36.151-36.392-72.301-72.784-108.452-109.177C57.33,38.433,46.675,27.707,36.02,16.98C24.414,5.297,6.378,23.34,17.98,35.02
			L17.98,35.02z"/>
	</g>
</g>
<g>
	<g>
		<path d="M469.231,14.229c-17.005,16.93-34.01,33.859-51.015,50.788c-39.99,39.813-79.979,79.626-119.97,119.438
			c-46.439,46.233-92.878,92.467-139.318,138.7c-36.352,36.19-72.704,72.382-109.056,108.572
			c-10.715,10.668-21.429,21.335-32.144,32.002c-11.669,11.618,6.373,29.655,18.04,18.039
			c17.004-16.929,34.009-33.858,51.014-50.788c39.99-39.812,79.98-79.625,119.97-119.438c46.439-46.233,92.878-92.466,139.317-138.7
			c36.353-36.191,72.705-72.382,109.057-108.573c10.715-10.667,21.43-21.334,32.144-32.001
			C498.94,20.651,480.898,2.614,469.231,14.229L469.231,14.229z"/>
	</g>
</g>
</svg>
