<?xml version="1.0" encoding="utf-8"?>
<!-- Generator: Adobe Illustrator 16.0.4, SVG Export Plug-In . SVG Version: 6.00 Build 0)  -->
<!DOCTYPE svg PUBLIC "-//W3C//DTD SVG 1.1//EN" "http://www.w3.org/Graphics/SVG/1.1/DTD/svg11.dtd">
<svg version="1.1" id="Layer_1" xmlns="http://www.w3.org/2000/svg" xmlns:xlink="http://www.w3.org/1999/xlink" x="0px" y="0px"
	 width="500px" height="500px" viewBox="0 0 500 500" enable-background="new 0 0 500 500" xml:space="preserve">
<g>
	<path fill="#FFFFFF" d="M258.667,402.334l-148.668-0.073C106.25,401.5,102,400,99.723,397.911l-76.712-70.553
		c-5.45-5.012-5.449-13.88,0.001-19.807l256.612-279.02c5.45-5.927,14.287-6.667,19.739-1.655l164.474,151.266
		c5.449,5.013,5.45,13.881-0.001,19.808L283.434,392.692C278.665,399,267.999,403,258.667,402.334z"/>
	<g>
		<path d="M258.667,389.578c-47.971-0.023-95.943-0.047-143.914-0.071c-1.173,0-2.347-0.001-3.52-0.001
			c-3.346-0.002,3.169,0.789-0.71-0.252c-0.636-0.171-2.888-1.381-1.817-0.396c-0.18-0.166-0.36-0.331-0.541-0.497
			c-1.058-0.973-2.115-1.945-3.173-2.918c-9.708-8.929-19.417-17.858-29.126-26.787c-11.195-10.297-22.391-20.593-33.585-30.89
			c-3.058-2.812-6.116-5.624-9.174-8.437c-0.703-0.646-1.366-1.287-2.035-1.974c0.669,0.687,0.979,2.008,0.407-0.295
			c0.219,0.884-0.308,2.724,0.32,0.093c-0.366,1.533,0.844-1.247,0.271-0.623c25.088-27.279,50.176-54.558,75.265-81.837
			c43.03-46.787,86.059-93.574,129.089-140.361c14.313-15.563,28.626-31.126,42.939-46.689c2.919-3.173,5.837-6.347,8.756-9.52
			c0.168-0.183,0.336-0.366,0.504-0.548c1.854-2.015-0.198-0.253,2.057-1.493c-0.695,0.383-2.505,0.323,0.152,0.228
			c-1.482,0.053,1.218,0.99-0.487-0.413c0.903,0.743,1.735,1.596,2.596,2.387c39.963,36.753,79.925,73.507,119.888,110.26
			c13.824,12.714,27.648,25.429,41.473,38.143c0.518,0.476,0.973,0.943,1.476,1.459c-0.669-0.687-0.979-2.006-0.407,0.295
			c-0.219-0.883,0.309-2.724-0.319-0.092c0.354-1.48-0.745,1.135-0.287,0.641c-0.889,0.959-1.777,1.919-2.666,2.878
			c-5.231,5.647-10.464,11.295-15.695,16.943c-40.949,44.204-81.899,88.408-122.849,132.612
			c-10.248,11.062-20.496,22.125-30.744,33.188c-2.442,2.637-4.884,5.272-7.325,7.908
			C270.504,387.893,266.379,389.925,258.667,389.578c-6.951-0.312-12.756,6.039-12.756,12.756c0,7.189,5.812,12.443,12.756,12.756
			c12.624,0.568,25.218-4.128,33.816-13.41c0.837-0.903,1.674-1.807,2.511-2.71c5.148-5.559,10.298-11.116,15.446-16.675
			c19.229-20.758,38.46-41.516,57.689-62.273c34.426-37.163,68.853-74.326,103.279-111.488
			c10.196-11.007,13.417-28.401,1.236-39.604c-4.128-3.796-8.255-7.592-12.383-11.389c-20.526-18.877-41.052-37.755-61.577-56.633
			c-22.434-20.632-44.867-41.264-67.301-61.896c-6.513-5.989-13.025-11.979-19.537-17.968c-1.132-1.041-2.264-2.081-3.396-3.122
			c-10.963-10.083-25.854-8.443-36.788,0.541c-2.381,1.956-4.37,4.649-6.441,6.902c-5.073,5.516-10.146,11.033-15.22,16.549
			c-17.202,18.704-34.405,37.408-51.607,56.113c-43.124,46.89-86.249,93.78-129.373,140.67
			c-14.779,16.069-29.557,32.138-44.335,48.207c-3.255,3.54-6.511,7.08-9.767,10.62C4.645,308.695,2.62,325.92,14.568,336.909
			c19.46,17.898,38.921,35.796,58.382,53.694c6.177,5.682,12.144,11.827,18.694,17.083c9.619,7.718,19.606,7.331,30.882,7.336
			c45.38,0.022,90.76,0.045,136.14,0.067C275.119,415.098,275.118,389.586,258.667,389.578z"/>
	</g>
</g>
<g>
	<path d="M335.776,329.568c-4.485,4.92-11.868,5.492-16.49,1.278L156.803,182.705c-4.622-4.214-4.732-11.619-0.246-16.538
		L277.709,33.286c4.485-4.92,11.868-5.492,16.49-1.279l162.484,148.142c4.62,4.214,4.73,11.619,0.245,16.538L335.776,329.568z"/>
	<g>
		<path d="M326.757,320.549c-2.008,1.976-0.756,0.569-0.028,0.307c2.027-0.731-1.743-0.307,0.454,0.141
			c0.102,0.021,1.281,0.975,1.053,0.766c-0.394-0.357-0.786-0.716-1.179-1.074c-1.992-1.816-3.984-3.633-5.977-5.449
			c-7.873-7.178-15.746-14.355-23.619-21.533c-23.387-21.322-46.773-42.646-70.16-63.968
			c-18.504-16.871-37.008-33.741-55.511-50.611c-1.744-1.59-3.487-3.179-5.231-4.769c-0.244-0.223-0.488-0.445-0.732-0.667
			c-0.208-0.189,1.689,3.005-0.359-0.515c0.565,0.971,0.497,1.272,0.337,2.347c0.392-2.648,0.032-0.622-0.15-0.421
			c4.174-4.578,8.347-9.155,12.521-13.733c35.775-39.239,71.551-78.478,107.327-117.717c0.382-0.419,0.765-0.838,1.146-1.258
			c0.514-0.563,1.867-1.37,0.725-0.652c-0.601,0.378-3.03,0.272-0.193,0.208c-0.979,0.022-1.349-0.327-1.997-0.917
			c0.954,0.87,1.908,1.74,2.863,2.61c6.339,5.78,12.678,11.559,19.018,17.339c22.489,20.505,44.979,41.01,67.47,61.514
			c20.5,18.691,41.001,37.382,61.501,56.073c3.853,3.513,7.705,7.025,11.558,10.538c0.547,0.499-1.699-3.076,0.425,0.576
			c-0.565-0.971-0.497-1.271-0.338-2.347c-0.319,2.155-0.419,1.128,0.229,0.334c-0.254,0.311-0.546,0.598-0.815,0.895
			c-1.903,2.087-3.806,4.174-5.709,6.261c-36.642,40.189-73.284,80.379-109.926,120.569
			C329.892,317.11,328.324,318.829,326.757,320.549c-4.681,5.134-5.084,12.955,0,18.039c4.744,4.745,13.354,5.14,18.039,0
			c33.648-36.905,67.297-73.812,100.945-110.717c6.104-6.695,12.208-13.39,18.312-20.084c3.07-3.367,5.777-6.79,7.428-11.157
			c3.362-8.901,0.81-19.494-6.216-25.899c-13.896-12.669-27.791-25.338-41.687-38.008C384.031,96.666,344.484,60.61,304.938,24.554
			c-3.17-2.891-6.465-5.533-10.644-6.901c-9.256-3.029-19.577,0.002-26.091,7.146c-4.935,5.412-9.869,10.824-14.804,16.236
			c-20.64,22.639-41.28,45.277-61.921,67.916c-14.485,15.888-28.97,31.775-43.456,47.663c-10.119,11.099-9.55,26.623,1.478,36.678
			c5.705,5.201,11.409,10.402,17.113,15.603c43.164,39.354,86.327,78.708,129.491,118.061c4.147,3.782,8.295,7.563,12.442,11.345
			c0.573,0.522,1.146,1.045,1.719,1.566c10.126,9.233,24.96,8.14,34.529-1.278C356.535,327.034,338.487,309.004,326.757,320.549z"/>
	</g>
</g>
</svg>
