<?xml version="1.0" encoding="utf-8"?>
<!-- Generator: Adobe Illustrator 16.0.4, SVG Export Plug-In . SVG Version: 6.00 Build 0)  -->
<!DOCTYPE svg PUBLIC "-//W3C//DTD SVG 1.1//EN" "http://www.w3.org/Graphics/SVG/1.1/DTD/svg11.dtd">
<svg version="1.1" id="Layer_1" xmlns="http://www.w3.org/2000/svg" xmlns:xlink="http://www.w3.org/1999/xlink" x="0px" y="0px"
	 width="500px" height="500px" viewBox="0 0 500 500" enable-background="new 0 0 500 500" xml:space="preserve">
<g>
	<g>
		<path fill="#808080" d="M35,82.756c32.91,0,65.821,0,98.731,0c64.225,0,128.45,0,192.674,0c43.779,0,87.56,0,131.339,0
			c1.752,0,3.504,0,5.256,0c16.452,0,16.452-25.512,0-25.512c-32.91,0-65.82,0-98.73,0c-64.226,0-128.45,0-192.675,0
			c-43.779,0-87.559,0-131.339,0c-1.752,0-3.504,0-5.256,0C18.548,57.244,18.548,82.756,35,82.756L35,82.756z"/>
	</g>
</g>
<g>
	<g>
		<path fill="#808080" d="M35,203.422c32.91,0,65.821,0,98.731,0c64.225,0,128.45,0,192.674,0c43.779,0,87.56,0,131.339,0
			c1.752,0,3.504,0,5.256,0c16.452,0,16.452-25.512,0-25.512c-32.91,0-65.82,0-98.73,0c-64.226,0-128.45,0-192.675,0
			c-43.779,0-87.559,0-131.339,0c-1.752,0-3.504,0-5.256,0C18.548,177.911,18.548,203.422,35,203.422L35,203.422z"/>
	</g>
</g>
<g>
	<g>
		<path fill="#808080" d="M35,324.089c32.91,0,65.821,0,98.731,0c64.225,0,128.45,0,192.674,0c43.779,0,87.56,0,131.339,0
			c1.752,0,3.504,0,5.256,0c16.452,0,16.452-25.512,0-25.512c-32.91,0-65.82,0-98.73,0c-64.226,0-128.45,0-192.675,0
			c-43.779,0-87.559,0-131.339,0c-1.752,0-3.504,0-5.256,0C18.548,298.577,18.548,324.089,35,324.089L35,324.089z"/>
	</g>
</g>
<g>
	<g>
		<path fill="#808080" d="M35,444.756c32.91,0,65.821,0,98.731,0c64.225,0,128.45,0,192.674,0c43.779,0,87.56,0,131.339,0
			c1.752,0,3.504,0,5.256,0c16.452,0,16.452-25.512,0-25.512c-32.91,0-65.82,0-98.73,0c-64.226,0-128.45,0-192.675,0
			c-43.779,0-87.559,0-131.339,0c-1.752,0-3.504,0-5.256,0C18.548,419.244,18.548,444.756,35,444.756L35,444.756z"/>
	</g>
</g>
</svg>
