<?xml version="1.0" encoding="utf-8"?>
<!-- Generator: Adobe Illustrator 16.0.4, SVG Export Plug-In . SVG Version: 6.00 Build 0)  -->
<!DOCTYPE svg PUBLIC "-//W3C//DTD SVG 1.1//EN" "http://www.w3.org/Graphics/SVG/1.1/DTD/svg11.dtd">
<svg version="1.1" id="Layer_1" xmlns="http://www.w3.org/2000/svg" xmlns:xlink="http://www.w3.org/1999/xlink" x="0px" y="0px"
	 width="500px" height="500px" viewBox="0 0 500 500" enable-background="new 0 0 500 500" xml:space="preserve">
<g>
	<g>
		<path fill="#4D4D4D" d="M73.188,30c0,32.036,0,64.072,0,96.108c0,63.972,0,127.943,0,191.915c0,47.703,0,95.405,0,143.107
			c0,3.957,0,7.913,0,11.87c0,13.799,11.514,25.312,25.312,25.312s25.312-11.514,25.312-25.312c0-32.036,0-64.072,0-96.108
			c0-63.971,0-127.943,0-191.914c0-47.703,0-95.405,0-143.108c0-3.957,0-7.913,0-11.87c0-13.798-11.514-25.312-25.312-25.312
			S73.188,16.202,73.188,30L73.188,30z"/>
	</g>
</g>
<g>
	<g>
		<path fill="#4D4D4D" d="M378.188,30c0,32.036,0,64.072,0,96.108c0,63.972,0,127.943,0,191.915c0,47.703,0,95.405,0,143.107
			c0,3.957,0,7.913,0,11.87c0,13.799,11.514,25.312,25.312,25.312s25.312-11.514,25.312-25.312c0-32.036,0-64.072,0-96.108
			c0-63.971,0-127.943,0-191.914c0-47.703,0-95.405,0-143.108c0-3.957,0-7.913,0-11.87c0-13.798-11.514-25.312-25.312-25.312
			S378.188,16.202,378.188,30L378.188,30z"/>
	</g>
</g>
</svg>
