<?xml version="1.0" encoding="utf-8"?>
<!-- Generator: Adobe Illustrator 16.0.4, SVG Export Plug-In . SVG Version: 6.00 Build 0)  -->
<!DOCTYPE svg PUBLIC "-//W3C//DTD SVG 1.1//EN" "http://www.w3.org/Graphics/SVG/1.1/DTD/svg11.dtd">
<svg version="1.1" id="Layer_1" xmlns="http://www.w3.org/2000/svg" xmlns:xlink="http://www.w3.org/1999/xlink" x="0px" y="0px"
	 width="500px" height="500px" viewBox="0 0 500 500" enable-background="new 0 0 500 500" xml:space="preserve">
<g>
	<path fill="#FFFFFF" d="M141.668,354.265c6.292,0.121,11.297,5.393,11.172,11.781l-1.898,97.325
		c-0.126,6.386-5.331,11.466-11.624,11.348L43.384,472.9c-6.294-0.119-11.297-5.393-11.171-11.777l1.898-97.328
		c0.126-6.386,5.328-11.466,11.624-11.35L141.668,354.265z"/>
	<g>
		<path d="M141.668,367.021c-0.801-0.062-2.641-1.179-0.364,0.176c-0.872-0.52-0.988-0.749-1.353-1.673
			c1.378,3.496,0.146-0.155,0.129,0.734c-0.022,1.131-0.044,2.262-0.066,3.392c-0.102,5.23-0.204,10.461-0.306,15.691
			c-0.308,15.784-0.616,31.568-0.924,47.353c-0.197,10.115-0.395,20.231-0.592,30.348c-0.008,0.407-0.133,0.771,0.096-0.415
			c0.364-1.893-1.201,1.291,0.134-0.162c0.489-0.532,2.854-1.064,0.123-0.302c1.745-0.487-0.55-0.225-1.116-0.235
			c-4.619-0.087-9.239-0.175-13.858-0.263c-26.51-0.502-53.02-1.005-79.529-1.507c-0.215-0.004-0.43-0.009-0.645-0.013
			c0.936,0.018,0.602,0.095,1.436,0.472c-2.256-1.02-0.499-0.506,0.047,0.3c0.894,1.319,0.116-1.225,0.091,0.087
			c0.007-0.39,0.015-0.78,0.023-1.17c0.082-4.212,0.164-8.423,0.246-12.635c0.299-15.355,0.599-30.712,0.898-46.067
			c0.231-11.832,0.461-23.664,0.692-35.496c0.012-0.613,0.024-1.227,0.036-1.84c-0.015,0.755-1.208,2.627,0.154,0.273
			c-0.517,0.893-0.855,0.915-1.752,1.28c3.332-1.355-0.431-0.164,0.805-0.141c3.473,0.065,6.945,0.132,10.417,0.197
			c27.544,0.522,55.088,1.045,82.633,1.567C139.972,366.988,140.82,367.005,141.668,367.021c16.461,0.312,16.431-25.2,0-25.512
			c-24.846-0.472-49.691-0.942-74.537-1.414c-9.923-0.188-23.767-2.539-32.871,2.419c-14.085,7.67-12.928,22.4-13.191,35.934
			c-0.527,27.041-1.055,54.082-1.582,81.122c-0.188,9.61,4.091,18.092,12.47,23.075c4.931,2.934,10.5,2.994,15.997,3.099
			c13.467,0.255,26.934,0.511,40.401,0.766c14.431,0.273,28.861,0.547,43.292,0.82c2.557,0.049,5.114,0.097,7.67,0.146
			c13.529,0.257,24.13-11.29,24.386-24.434c0.505-25.9,1.011-51.8,1.516-77.7c0.116-5.914,0.231-11.828,0.346-17.741
			c0.281-14.382-9.664-24.983-23.898-26.091c-6.941-0.54-12.756,6.211-12.756,12.756
			C128.912,361.626,134.738,366.481,141.668,367.021z"/>
	</g>
</g>
<g>
	<path fill="#FFFFFF" d="M153.561,464.146c-4.061,3.711-6.944,0.057-6.944,0.057c-6.902-16.539-35.603-52.348-45.572-61.925
		c-9.381-9.011-36.896-37.313-57.905-44.743c0,0-5.192-2.074-4.13-3.424L357.104,27.108c6.526-6.709,20.134-4.16,30.393,5.696
		l77.4,74.349c10.257,9.855,13.281,23.284,6.756,29.993L153.561,464.146z"/>
	<g>
		<path d="M147.123,453.132c-4.169,2.641-1.195,3.464,8.922,2.472c-0.854-0.854-0.43-0.377,1.272,1.431
			c-0.459-1.071-0.988-2.112-1.515-3.151c-1.426-2.809-3.065-5.511-4.727-8.185c-4.034-6.492-8.508-12.713-13.071-18.839
			c-8.275-11.111-16.874-22.25-26.538-32.207c-8.901-9.171-18.374-17.957-28.149-26.181c-6.53-5.493-13.344-10.732-20.552-15.31
			c-3.198-2.03-6.537-3.825-9.992-5.375c-2.051-0.92-4.135-1.775-6.244-2.552c2.614,1.136,3.194,1.369,1.74,0.697
			c-3.083-1.446-0.18-1.699,1.615,2.214c0.428,3.276,0.857,6.553,1.286,9.829c0.046-0.158,0.092-0.315,0.138-0.474
			c-1.094,1.877-2.187,3.753-3.28,5.629c21.838-22.45,43.677-44.899,65.515-67.35c44.402-45.646,88.805-91.292,133.208-136.939
			c35.298-36.286,70.596-72.573,105.894-108.859c3.69-3.794,7.381-7.588,11.071-11.382c0.735-0.755,1.47-1.511,2.205-2.267
			c0.548-0.563,2.126-1.426,0.146-0.168c-2.152,1.367,0.151,0.004,1.035-0.202c-2.756,0.645,0.713,0.183,1.297,0.208
			c-2.58-0.11,1.394,0.418,1.677,0.494c1.471,0.396,1.417,0.412,3.473,1.52c7.078,3.815,13.701,12.065,19.688,17.815
			c11.428,10.978,22.855,21.955,34.283,32.932c8.738,8.394,17.478,16.788,26.216,25.182c0.667,0.641,1.334,1.281,2,1.921
			c2.757,2.648,4.972,5.83,5.82,8.155c0.446,1.223,0.706,2.5,0.957,3.773c-0.507-2.576-0.217,0.975-0.237,1.379
			c0.171-3.229-1.141,1.674,0.243-1.211c-0.737,1.537-0.746,0.878,0.112-0.004c-0.131,0.134-0.261,0.268-0.392,0.402
			c-7.701,7.917-15.403,15.834-23.104,23.752c-38.581,39.661-77.162,79.322-115.742,118.983
			c-43.094,44.301-86.188,88.601-129.281,132.901c-16.524,16.986-33.048,33.974-49.572,50.96
			c-11.472,11.793,6.552,29.849,18.04,18.039c21.838-22.449,43.676-44.899,65.515-67.35
			c44.402-45.646,88.805-91.291,133.207-136.937c35.297-36.287,70.595-72.572,105.893-108.858c3.69-3.794,7.381-7.588,11.071-11.382
			c7.107-7.306,10.466-15.732,9.017-26.229c-1.92-13.903-12.272-23.228-21.788-32.368c-10.693-10.272-21.387-20.544-32.08-30.815
			c-10.229-9.827-20.46-19.653-30.689-29.479c-11.454-11.003-24.191-21.245-41.28-18.561c-11.553,1.815-20.684,14.429-28.391,22.353
			c-35.912,36.917-71.823,73.834-107.734,110.751c-44.224,45.463-88.449,90.926-132.673,136.389
			c-15.333,15.763-30.666,31.525-45.999,47.288c-4.24,4.358-8.479,8.717-12.72,13.075c-4.57,4.698-9.454,9.306-7.356,16.933
			c1.317,4.788,5.122,8.249,9.487,10.297c1.165,0.511,2.336,1.007,3.514,1.49c0.639,0.264,2.309,0.892,0.326,0.053
			c1.883,0.797,3.698,1.753,5.495,2.724c7.719,4.17,13.799,8.911,19.885,13.973c10.383,8.634,20.475,18.016,29.745,27.85
			c10.729,11.382,18.629,21.835,27.17,33.942c4.183,5.931,8.21,12.021,11.58,18.456c1.937,3.697,3.521,7.047,7.303,9.268
			c5.929,3.481,13.385,3.28,18.922-0.866c5.554-4.159,8.393-10.938,4.576-17.453C161.362,452.222,152.702,448.954,147.123,453.132z"
			/>
	</g>
</g>
<g>
	<path fill="#FFFFFF" d="M401.839,200.555c-6.9-16.54-35.603-52.349-45.571-61.925c-9.381-9.011-36.895-37.312-57.904-44.743"/>
	<g>
		<path d="M412.854,194.117c-4.957-11.554-12.933-21.981-20.427-31.976c-7.91-10.548-16.104-21.068-25.225-30.61
			c-8.026-8.396-16.68-16.363-25.443-23.972c-12.028-10.444-24.926-20.421-40.005-25.973c-6.53-2.404-13.964,2.632-15.69,8.909
			c-1.962,7.132,2.39,13.292,8.909,15.691c3.494,1.287-2.31-1.123,1.233,0.466c1.505,0.675,2.962,1.455,4.411,2.238
			c3.126,1.688,6.105,3.642,9.036,5.645c5.808,3.97,10.365,7.81,16.159,12.889c8.229,7.212,16.317,14.789,23.882,22.702
			c3.478,3.638,6.735,7.49,9.956,11.354c4.584,5.496,7.996,9.868,11.55,14.606c7.229,9.641,14.846,19.766,19.624,30.906
			c2.743,6.395,12.018,7.76,17.453,4.576C414.821,207.736,415.595,200.507,412.854,194.117L412.854,194.117z"/>
	</g>
</g>
</svg>
