<?xml version="1.0" encoding="utf-8"?>
<!-- Generator: Adobe Illustrator 16.0.4, SVG Export Plug-In . SVG Version: 6.00 Build 0)  -->
<!DOCTYPE svg PUBLIC "-//W3C//DTD SVG 1.1//EN" "http://www.w3.org/Graphics/SVG/1.1/DTD/svg11.dtd">
<svg version="1.1" id="Layer_1" xmlns="http://www.w3.org/2000/svg" xmlns:xlink="http://www.w3.org/1999/xlink" x="0px" y="0px"
	 width="500px" height="500px" viewBox="0 0 500 500" enable-background="new 0 0 500 500" xml:space="preserve">
<g>
	<g>
		<path d="M149.694,94.012C173.477,80.664,199.85,71.922,227,68.958c13.231-1.444,26.602-1.532,39.868-0.557
			c11.004,0.809,20.155,2.344,31.869,5.188c22.164,5.382,39.955,13.042,59.366,25.06c17.978,11.131,33.317,24.548,47.782,41.513
			c11.956,14.023,25,35.722,31.816,52.599c4.167,10.318,7.408,20.998,9.882,31.842c1.206,5.286,2.154,10.627,2.947,15.99
			c0.434,2.937,1.137,10.626,1.422,15.756c2.468,44.397-9.577,86.485-34.594,123.389c-11.146,16.44-26.518,32.518-43.527,45.831
			c1.753-1.371-1.669,1.229-1.6,1.177c-1.053,0.783-2.12,1.548-3.188,2.312c-2.138,1.53-4.316,3.003-6.508,4.454
			c-4.764,3.154-9.68,6.074-14.679,8.841c-10.211,5.649-18.437,9.261-28.468,12.862c-43.636,15.667-89.879,15.995-133.957,1.651
			c-37.052-12.057-69.789-35.3-94.917-66.391c-4.83-5.976-11.113-15.302-15.845-23.345c-4.761-8.094-9.724-18.285-12.586-25.426
			c-9.479-23.646-14.218-48.758-14.33-74.205c-0.072-16.448-25.584-16.455-25.512,0c0.237,53.902,19.743,105.337,54.597,146.276
			c30.705,36.065,73.528,61.636,119.481,72.68c46.571,11.192,96.834,7.426,141.063-10.983
			c42.589-17.727,78.764-47.609,104.187-86.125c25.49-38.616,37.921-85.475,35.961-131.613
			c-1.988-46.779-19.083-91.696-47.843-128.505c-27.978-35.808-66.724-62.205-109.877-76.195
			c-50.378-16.332-106.88-14.015-155.854,5.933c-9.312,3.793-18.373,8.094-27.142,13.016
			C122.474,80.034,135.332,102.073,149.694,94.012L149.694,94.012z"/>
	</g>
</g>
<g>
	<path d="M187.356,172.154c-1.328,5.34-4.737,8.714-10.077,7.386l-109.62-28.008c-5.34-1.328-8.593-6.734-7.265-12.073
		l28.25-113.613c1.328-5.341,4.737-8.714,10.077-7.386l38.471,69.21L187.356,172.154z"/>
	<g>
		<path d="M177.144,169.338c-0.718,2.472,0.497-0.458,2.951-0.011c-0.134-0.024-0.268-0.068-0.4-0.102
			c-1.134-0.29-2.268-0.58-3.402-0.869c-4.809-1.229-9.618-2.458-14.427-3.687c-15.084-3.854-30.169-7.708-45.253-11.562
			c-13.077-3.341-26.153-6.682-39.229-10.023c-2.299-0.587-4.598-1.175-6.896-1.762c0.406,0.104,0.01,1.396,0.188,0.683
			c0.253-1.018,0.506-2.035,0.759-3.052c5.39-21.677,10.78-43.354,16.17-65.032c2.782-11.189,5.564-22.378,8.346-33.567
			c0.775-3.119,1.551-6.238,2.327-9.357c0.171-0.688,0.342-1.377,0.514-2.065c0.725-2.916-0.093,0.249-2.884-0.259
			c-2.11-1.623-4.22-3.245-6.33-4.867c21.932,39.456,44.056,78.617,67.102,117.428c7.178,12.089,14.356,24.177,21.534,36.266
			c6.965,11.731,25.281,1.083,18.29-10.691c-22.198-37.384-44.659-74.579-65.783-112.581c-6.907-12.426-13.814-24.853-20.722-37.279
			c-0.645-1.159-1.289-2.318-1.933-3.478c-2.976-5.354-10.159-6.966-15.8-5.381c-7.972,2.24-12.301,8.776-14.209,16.453
			C71.593,50.529,65.132,76.514,58.671,102.5c-2.661,10.7-5.321,21.401-7.982,32.101c-1.841,7.404-1.284,14.986,4.073,20.937
			c3.697,4.106,8.407,5.78,13.508,7.083c27.233,6.958,54.466,13.916,81.699,20.874c7.142,1.825,14.284,3.649,21.426,5.474
			c1.023,0.261,2.046,0.523,3.069,0.784c11.176,2.855,20.088-4.388,23.105-14.784C201.386,161.821,180.944,156.247,177.144,169.338z
			"/>
	</g>
</g>
</svg>
