<?xml version="1.0" encoding="utf-8"?>
<!-- Generator: Adobe Illustrator 16.0.4, SVG Export Plug-In . SVG Version: 6.00 Build 0)  -->
<!DOCTYPE svg PUBLIC "-//W3C//DTD SVG 1.1//EN" "http://www.w3.org/Graphics/SVG/1.1/DTD/svg11.dtd">
<svg version="1.1" id="Layer_1" xmlns="http://www.w3.org/2000/svg" xmlns:xlink="http://www.w3.org/1999/xlink" x="0px" y="0px"
	 width="500px" height="500px" viewBox="0 0 500 500" enable-background="new 0 0 500 500" xml:space="preserve">
<g>
	<path fill="#4D4D4D" d="M408.429,223.271c12.841,12.453,13.013,33.108,0.367,46.137L216.143,467.906
		c-12.641,13.022-40.771,31.901-46.147,1.036l-3.481-434.42c3.095-34.114,33.3-13.49,46.153-1.041L408.429,223.271z"/>
	<g>
		<path fill="#4D4D4D" d="M399.767,231.933c6.425,6.514,7.885,15.65,4.253,23.185c-1.42,2.946-2.815,4.523-5.061,6.837
			c-4.344,4.476-8.688,8.951-13.031,13.427c-18.54,19.103-37.08,38.205-55.619,57.307c-38.751,39.927-77.502,79.854-116.252,119.779
			c-3.029,3.122-6.003,6.319-9.161,9.313c-1.43,1.354-2.931,2.633-4.452,3.884c-2.632,2.165,1.986-1.45-0.786,0.603
			c-0.837,0.62-1.7,1.205-2.563,1.789c-1.709,1.157-3.495,2.194-5.312,3.171c-0.881,0.474-1.79,0.892-2.7,1.308
			c2.807-1.284-0.956,0.23-1.552,0.411c-0.864,0.262-1.749,0.438-2.634,0.608c3.264-0.629,0.69-0.158-0.142-0.144
			c-2.853,0.048,2.78,0.626,0.042,0.062c-0.913-0.188-2.932-1.336-0.047,0.104c-2.441-1.219,1.915,1.852-0.193-0.056
			c-2.144-1.94,1.329,2.184-0.398-0.418c-0.19-0.287-1.576-3.268-0.66-0.981c-0.646-1.61-1.037-3.317-1.418-5.004
			c0.721,3.193,0.16,1.271,0.15-0.043c-0.015-1.802-0.029-3.604-0.043-5.405c-0.054-6.75-0.108-13.5-0.162-20.25
			c-0.438-54.586-0.875-109.172-1.312-163.758c-0.49-61.105-0.979-122.212-1.469-183.317c-0.139-17.325-0.278-34.649-0.417-51.974
			c-0.021-2.612-0.042-5.225-0.063-7.837c-0.014-1.707,0.103-1.039,0.646-3.333c0.256-1.085,0.632-2.134,1.018-3.179
			c-0.972,2.635,0.194,0.022,0.505-0.48c-1.518,2.454-0.445,0.6,0.216-0.044c-2.139,2.084-0.957,0.724-0.01,0.202
			c-2.774,1.531-1.245,0.528-0.17,0.257c-3.497,0.88-0.716,0.113,0.513,0.138c2.805,0.058-2.895-0.558-0.045-0.028
			c0.842,0.157,1.667,0.399,2.489,0.637c0.86,0.249,1.698,0.569,2.534,0.886c-2.965-1.122-0.047,0.024,0.482,0.279
			c3.801,1.83,7.34,4.203,10.727,6.703c2.612,1.928-1.959-1.572,0.52,0.422c0.711,0.572,1.405,1.165,2.099,1.757
			c1.276,1.09,2.507,2.231,3.717,3.392c0.195,0.187,0.387,0.375,0.581,0.563c1.392,1.349,2.783,2.698,4.175,4.047
			c6.177,5.989,12.354,11.978,18.532,17.967c20.924,20.286,41.848,40.572,62.773,60.857
			c36.068,34.968,72.137,69.937,108.206,104.905C398.77,230.967,399.268,231.45,399.767,231.933
			c11.343,10.997,28.685-6.311,17.324-17.325c-31.55-30.587-63.1-61.175-94.65-91.763c-33.609-32.585-67.22-65.17-100.83-97.754
			c-10.459-10.14-23.688-19.754-38.541-21.358c-17.776-1.919-28.932,15.113-28.802,31.3c0.091,11.371,0.182,22.742,0.273,34.112
			c0.453,56.534,0.906,113.067,1.359,169.601c0.479,59.793,0.958,119.587,1.438,179.381c0.124,15.445,0.248,30.892,0.371,46.337
			c0.06,7.416,1.427,14.408,5.294,21.005c6.116,10.433,17.145,13.426,28.407,11.711c9.534-1.452,18.175-7.776,25.561-13.551
			c11.212-8.766,20.751-20.37,30.616-30.533c20.232-20.847,40.464-41.693,60.697-62.539c35.667-36.75,71.334-73.499,107.001-110.248
			c3.783-3.897,7.306-7.995,9.892-12.825c9.318-17.409,5.633-38.97-8.085-52.876C405.983,203.347,388.665,220.679,399.767,231.933z"
			/>
	</g>
</g>
</svg>
